<svg width="232" height="41" viewBox="0 0 232 41" fill="none" xmlns="http://www.w3.org/2000/svg">
<g id="Group 143">
<g id="Vector">
<path d="M30.4386 7.10522L30.5556 7.1637L31.2866 7.89469L31.2573 8.01165L30.7602 8.47949L30.2924 8.94733L30.0585 9.152L25.848 13.3625L25.614 13.5672L25.2632 13.8888L24.7661 14.269L24.3567 14.5614L23.7427 14.9122L23.1287 15.2046L22.2515 15.497L21.4328 15.6725L20.5263 15.7894H19.5029L18.5965 15.6725L17.8655 15.5263L17.1053 15.2924L16.345 14.9707L15.8187 14.6783L15.3801 14.3859L15.0292 14.1228L14.7076 13.8596L14.3275 13.5087L14.0936 13.3041L11.462 10.6725L11.2281 10.4678L9.00586 8.24557L8.77194 8.04089L8.71346 7.98241L8.7427 7.86545L9.21054 7.39762L9.44445 7.19294L9.47369 7.13446L9.61989 7.1637L10.5556 8.09937L10.7895 8.30405L14.6784 12.1929L14.9123 12.3976L15.2632 12.7485L15.6725 13.0701L16.0526 13.3625L16.5497 13.6549L17.1345 13.9181L18.0994 14.2397L18.7719 14.3859L19.4152 14.4736L19.7076 14.5029H20.2632L21.2281 14.3859L21.8714 14.2397L22.6316 14.0058L23.0702 13.8304L23.538 13.5964L23.9474 13.3625L24.3567 13.0701L24.7369 12.7485L25.2339 12.2807L28.2749 9.23972L28.5088 9.03505L30.4386 7.10522Z" fill="#307060"/>
<path d="M19.7953 24.2982H20.1754L21.0819 24.3859L21.7544 24.5029L22.4854 24.6783L23.0702 24.883L23.655 25.1462L24.1813 25.4386L24.7076 25.7894L25.0877 26.0818L25.4971 26.4327L25.7895 26.6959L26.1696 27.0468L30.4094 31.2865L30.6433 31.4912L31.1111 31.959L31.2866 32.1637L31.2573 32.2514L31.0234 32.4561L30.614 32.8655L30.5263 32.9824L30.4094 32.9532L29.9708 32.5438L27.8363 30.4093L27.6023 30.2047L25.0585 27.6608L24.8246 27.4561L24.5029 27.1637L24.0643 26.8421L23.655 26.5789L23.1871 26.345L22.8655 26.1988L22.3099 25.9941L21.5497 25.7894L20.6725 25.6432H19.3275L18.5673 25.7602L17.8655 25.9356L17.2807 26.1403L16.7252 26.3742L16.2281 26.6374L15.8772 26.8713L15.4971 27.1637L15.2047 27.4269L14.9708 27.6316L14.7369 27.8655L14.5029 28.0701L10.4386 32.1345H10.3801V32.193L10.1462 32.3976L9.70761 32.8362L9.59065 32.9824L9.47369 32.9239L9.09358 32.5731L8.91814 32.4269L8.71346 32.193L8.77194 32.076L8.97662 31.8713L9.21054 31.6666L11.6959 29.1813L11.9298 28.9766L14.3567 26.5497L14.6784 26.2865L15.0292 25.9941L15.5556 25.614L16.0819 25.2924L16.5497 25.0585L17.1053 24.8245L17.7193 24.6199L18.3626 24.4737L19.0936 24.3567L19.7953 24.2982Z" fill="#307060"/>
<path d="M19.5906 26.6959H20.3509L21.0234 26.7836L21.6959 26.9298L22.3099 27.1345L22.9825 27.4561L23.3041 27.6608L23.7135 27.9532L24.0936 28.2748L24.386 28.538L24.7661 28.8888L27.6023 31.7251L27.8363 31.9298L29.6491 33.7426L29.6199 33.8596L29.386 34.0643L28.8304 34.6198L28.5965 34.4152L24.6491 30.4678L24.4152 30.2631L23.6257 29.4736L23.3918 29.269L23.0994 29.0058L22.807 28.8011L22.3392 28.538L21.9006 28.3333L21.2866 28.1286L20.5263 27.9824H19.4444L18.8012 28.0994L18.0994 28.3333L17.5731 28.5672L17.1637 28.8011L16.7544 29.1228L16.6667 29.2105H16.6082V29.269L16.3743 29.4736L15.7602 30.0877L15.5263 30.2923L11.6959 34.1228L11.462 34.3274L11.1988 34.6198L10.9942 34.4444L10.8772 34.3567V34.2982L10.7602 34.2397L10.5263 34.0058L10.3801 33.8304L10.4094 33.7134L15.3216 28.8011L15.5556 28.5964L15.7602 28.3918L16.0819 28.1286L16.579 27.7485L17.0468 27.4561L17.5439 27.1929L18.1871 26.959L18.8012 26.8128L19.5906 26.6959Z" fill="#307060"/>
<path d="M11.1111 5.49704L11.2281 5.52628L14.7076 9.00581L14.9415 9.21049L15.9357 10.2046L16.1696 10.4093L16.6374 10.8772L16.8713 11.0818L17.2807 11.3742L17.8363 11.6666L18.4503 11.9005L19.1228 12.076L19.7076 12.1637H20.3509L21.1404 12.0175L21.9006 11.7836L22.3684 11.5789L22.8655 11.2865L23.2749 10.9649L23.7135 10.5263L23.9474 10.3216L24.7368 9.53213L24.9708 9.32745L28.7135 5.58476L28.7719 5.49704L28.8889 5.52628L29.4152 6.05259L29.6199 6.28651V6.40347L29.2398 6.75435L29.0351 6.98827L28.9181 7.10523H28.8597L28.8012 7.22219H28.7427L28.6842 7.33914L28.4503 7.57306H28.3918V7.63154H28.3333V7.69002H28.2749V7.7485L28.0409 7.95318L24.9123 11.0818L24.6784 11.2865L24.3275 11.6374L24.0936 11.8421L23.7427 12.1345L23.3333 12.4269L22.8947 12.69L22.2807 12.9824L21.579 13.2163L20.9942 13.3333L20.2632 13.421H19.6784L19.0058 13.3333L18.3333 13.1871L17.6316 12.9532L17.1345 12.7193L16.6082 12.3976L16.2573 12.1345L15.8772 11.8128L15.5263 11.4912L15.1462 11.1403L14.8538 10.8479V10.7894H14.7953L14.5906 10.5555L14.2105 10.2046L10.3801 6.37423V6.25727L11.0526 5.58476L11.1111 5.49704Z" fill="#307060"/>
<path d="M19.8831 29.2106L20.4094 29.2398L21.1111 29.3568L21.8129 29.5907L22.2515 29.8246L22.6608 30.117L23.041 30.4386L23.4796 30.848L24.9415 32.31L25.1755 32.5147L28.041 35.3802L27.9825 35.4971L27.6316 35.8188L27.3392 36.1112L27.2515 36.2281L27.1345 36.1989L26.8714 35.9065L25.4971 34.5322L25.2632 34.3275L23.6258 32.6901L23.3918 32.4854L22.076 31.1696L21.6959 30.9065L21.2281 30.6726L20.6141 30.4971L19.9415 30.4386L19.3568 30.4971L18.9182 30.6141L18.4211 30.8188L18.0702 31.0527L17.7193 31.3743L16.1989 32.8948L15.9649 33.0995L15.5556 33.5088L15.3217 33.7135L12.9532 36.0819L12.8655 36.1989L12.7486 36.1696L12.3392 35.8188L11.9591 35.4386L12.0176 35.3217L13.772 33.5673L14.0059 33.3626L16.579 30.7895L16.8129 30.5848L17.0176 30.3802L17.4269 30.0585L17.7193 29.8538L18.1287 29.6199L18.6842 29.4152L19.1228 29.2983L19.8831 29.2106Z" fill="#307060"/>
<path d="M12.7778 3.88886L12.8948 3.94734L15.7603 6.81283L15.9942 7.01751L17.8948 8.9181L18.3041 9.21049L18.8597 9.47365L19.269 9.59061L19.5614 9.64909L20 9.67833L20.5848 9.61985L21.1404 9.47365L21.6082 9.26897L21.9298 9.0643L22.2807 8.74266L23.6258 7.39763L23.8597 7.19295L25.4971 5.55552L25.731 5.35085L26.8421 4.23974L27.0468 4.00582L27.1638 3.88886L27.2807 3.9181L27.7778 4.41517L27.9825 4.64909L28.0117 4.76605L27.6608 5.08769L24.8831 7.86547L24.6491 8.07014L23.041 9.67833L22.7193 9.94149L22.3684 10.2046L21.9591 10.4386L21.6375 10.5848L21.0819 10.7602L20.4094 10.8772H19.6199L19.0644 10.7894L18.5088 10.6432L18.041 10.4386L17.6024 10.2046L17.1345 9.82453L16.7837 9.50289L16.4913 9.21049L16.2573 9.00582L13.4796 6.22804L13.2456 6.02336L11.9591 4.73681L12.0176 4.61985L12.6316 4.00582L12.7778 3.88886Z" fill="#307060"/>
<path d="M14.4152 36.3742L14.5614 36.4035L15 36.842L15.2339 37.0467L15.6725 37.3976L16.1111 37.69L16.6374 37.9824L17.1345 38.2163L17.6901 38.421L18.3333 38.5964L18.9766 38.7134L19.5322 38.7719H20.4386L21.2281 38.6842L22.0468 38.5087L22.807 38.2456L23.655 37.8362L24.2105 37.4853L24.6199 37.1637L24.9415 36.9005L25.4678 36.3742L25.614 36.4035L26.345 37.1344L26.2573 37.2806L25.4971 38.0409L25.1754 38.304L24.7076 38.6549L24.3275 38.8888L23.8304 39.1812L23.1286 39.5029L22.1637 39.8245L21.4912 39.9707L20.5848 40.0877L20.1754 40.1169H19.7953L19.0936 40.0584L18.2164 39.9122L17.5439 39.7368L16.8713 39.5029L16.1696 39.1812L15.5848 38.8596L15.0877 38.5087L14.7076 38.2163L14.2982 37.8362L14.0643 37.6315L13.7427 37.2806L13.655 37.1929L13.7134 37.076L14.4152 36.3742Z" fill="#307060"/>
<path d="M32.076 8.68425L32.193 8.74273L32.6608 9.21056V9.26904L32.7485 9.29828L32.9532 9.5322L35.9357 12.5147V12.5731L36.0234 12.6024L36.2281 12.8363L36.7836 13.3918L37.0175 13.5965L37.3099 13.8889L37.5146 14.1228L37.7485 14.3568L38.0117 14.6784L38.2456 14.9416L38.655 15.4971L38.9766 16.0234L39.3275 16.6959L39.5321 17.2515L39.7368 17.924L39.883 18.6842L40 19.7369V20.0585H38.7427L38.6842 19.8538L38.6257 19.1813L38.4503 18.2456L38.2164 17.4562L37.9824 16.8714L37.7485 16.4035L37.4854 15.9649L37.2222 15.6141L36.8713 15.2047L36.4327 14.7369L33.0702 11.3743L32.8655 11.1404L31.2865 9.56144L31.462 9.35676L31.6667 9.15208L32.076 8.68425Z" fill="#307060"/>
<path d="M19.7369 0H20.2632L20.9357 0.0584795L21.6667 0.175439L22.3977 0.350877L23.1579 0.614035L23.7427 0.877193L24.3567 1.22807L24.7076 1.46199L25.1755 1.81287L25.5556 2.1345L25.9357 2.48538L26.2281 2.77778L26.345 2.98246L25.9065 3.39181L25.7018 3.59649L25.5848 3.74269L25.4679 3.71345L25.2632 3.53801V3.47953L25.1462 3.42105L24.9123 3.18713L24.5907 2.92398L24.2105 2.63158L23.6258 2.2807L22.9532 1.92982L22.2222 1.66667L21.6959 1.52047L21.0819 1.40351L20.5556 1.34503L19.8246 1.31579L19.0936 1.37427L18.4211 1.49123L17.7486 1.66667L17.1053 1.90058L16.4912 2.19298L15.9065 2.54386L15.4386 2.89474L15.117 3.15789L14.8246 3.42105L14.5029 3.74269L14.386 3.68421L14.2105 3.53801L14.0936 3.42105V3.36257H14.0351V3.30409L13.9181 3.24561V3.18713L13.8012 3.12865L13.6842 3.0117L13.7135 2.8655L13.9766 2.60234L14.1521 2.39766L14.386 2.19298L14.7076 1.90058L15.1755 1.54971L15.6141 1.25731L16.2281 0.906433L16.8421 0.614035L17.7193 0.321637L18.4796 0.146199L19.269 0.0292398L19.7369 0Z" fill="#307060"/>
<path d="M0 20.1169H1.28655L1.31579 20.1461L1.37427 20.8187L1.49123 21.5496L1.63743 22.1637L1.90058 22.9532L2.30994 23.8011L2.54386 24.152L2.80702 24.5029L3.07018 24.8245L3.47953 25.2631L3.77193 25.5555L3.97661 25.7894L7.98246 29.7953L8.18713 30.0292L8.65497 30.497L8.68421 30.614L7.89474 31.4035L7.69006 31.228L5.96491 29.5029L5.76023 29.2689L2.33918 25.8479L2.1345 25.614L1.81287 25.2339L1.46199 24.766L1.14035 24.2689L0.847953 23.7426L0.555556 23.0994L0.321637 22.3684L0.175439 21.7251L0.0584795 20.9649L0 20.3801V20.1169Z" fill="#307060"/>
<path d="M7.83626 8.7134L7.95322 8.74264L8.68421 9.47364L8.71345 9.56135L8.33333 9.91223L7.98246 10.2631L7.77778 10.497L4.12281 14.152L3.97661 14.3274H3.91813L3.85965 14.4444L3.33333 14.9707L3.12865 15.2046L2.8655 15.497L2.51462 15.9649L2.19298 16.5204L1.95906 17.0175L1.75439 17.573L1.54971 18.2456L1.40351 19.0058L1.34503 19.5029L1.31579 20.0292L1.28655 20.0584H0V19.766L0.116959 18.7426L0.292398 17.8654L0.526316 17.1052L0.847953 16.345L1.19883 15.7309L1.52047 15.2631L1.81287 14.883L2.16374 14.4736L2.51462 14.0935L5.70175 10.9064L5.90643 10.6725L7.66082 8.91808L7.83626 8.7134Z" fill="#307060"/>
<path d="M38.7135 20.1169H40V20.4385L39.9123 21.1988L39.7661 22.0175L39.5907 22.6608L39.386 23.2456L39.1228 23.8303L38.8012 24.3859L38.3918 24.9707L37.9825 25.4678L37.7778 25.7017L37.4269 26.0818L32.7193 30.7894L32.5146 31.0233L32.2515 31.2865L32.1638 31.4035L32.0468 31.3742L31.9298 31.228L31.7836 31.1111L31.579 30.8771L31.462 30.7602V30.7017L31.345 30.6432L31.3158 30.5263L32.8655 28.9765L33.0702 28.7426L36.5205 25.2923L36.7252 25.0584L36.9298 24.8537L37.2515 24.4444L37.5146 24.0935L37.8655 23.4795L38.1287 22.8947L38.3918 22.1052L38.538 21.4912L38.655 20.7309L38.6842 20.1461L38.7135 20.1169Z" fill="#307060"/>
<path d="M16.0527 16.0234L16.1989 16.0526L16.7837 16.2573L17.5731 16.4912L18.6258 16.7251L19.4152 16.8421H20.6141L21.5497 16.6959L22.5439 16.462L23.3041 16.2281L23.8597 16.0234L23.9766 16.0526L23.7135 16.7251L23.4796 17.4854L23.3041 18.2456L23.1872 19.1228L23.1287 19.883L23.0994 20.0585H21.9591L21.9299 20.0292V19.3275L22.0176 18.4795L22.1053 17.807L21.3743 17.9532L20.4679 18.0702H19.5614L18.4503 17.924L17.8948 17.807L17.9825 18.3626L18.0702 19.269L18.0994 20.0292L18.0702 20.0585H16.9006L16.8714 20.0292L16.8129 19.152L16.7252 18.4503L16.579 17.7193L16.3451 16.9006L16.1111 16.2281L16.0527 16.0234Z" fill="#307060"/>
<path d="M16.8714 20.1169H18.0994L18.0702 20.8771L17.9532 21.959L17.8948 22.3099L18.2749 22.2222L19.0059 22.1052L19.4445 22.0467H20.4971L21.4035 22.1637L22.1345 22.3099L22.076 22.1052L21.9591 21.1988L21.9299 20.8479V20.1169H23.0994L23.1287 20.1754L23.1872 20.9941L23.3041 21.8128L23.4796 22.6023L23.655 23.1871L23.8597 23.7719L23.9766 24.035V24.0935L23.655 24.0058L22.8655 23.7426L21.9883 23.5087L21.1111 23.3333L20.4094 23.2456H19.5907L18.8889 23.3333L18.1287 23.4795L17.2222 23.7134L16.2573 24.035L16.0527 24.0935L16.0819 23.9473L16.3743 23.1578L16.579 22.4268L16.7252 21.6958L16.8129 21.0526L16.8714 20.1169Z" fill="#307060"/>
<path d="M30.4678 10.3509L30.5848 10.3801L31.6959 11.4912L31.9006 11.7251L35 14.8245L35.2047 15.0585L36.0234 15.8772L36.2865 16.1988L36.6374 16.6666L36.8713 17.0468L37.1345 17.6023L37.3392 18.1871L37.5146 18.9473L37.6023 19.6783V20.0292L37.5731 20.0585H36.4035L36.345 19.8538L36.2865 19.2982L36.1403 18.6549L35.9357 18.0409L35.614 17.3684L35.3801 17.0175L35.0585 16.6374L34.7661 16.345L34.5614 16.1111L33.5672 15.1169L33.3626 14.883L29.6784 11.1988L29.7368 11.0818L30.4678 10.3509Z" fill="#307060"/>
<path d="M2.39764 20.1169H3.62571L3.65495 20.1754L3.71343 20.7309L3.85963 21.4327L4.0643 22.0467L4.38594 22.7192L4.61986 23.0701L4.88302 23.3918L5.20466 23.7426L5.76021 24.2982L5.96489 24.5321L7.28068 25.8479L7.48536 26.0818L10.0877 28.6842L10.3216 28.8888L10.2924 29.0058L9.91226 29.3567L9.76606 29.5321L9.56138 29.7368L9.41518 29.7075L5.99413 26.2865L5.78945 26.0526L4.09354 24.3567L3.56723 23.7134L3.27483 23.2748L2.89471 22.5438L2.71927 22.076L2.54384 21.4035L2.42688 20.7602L2.39764 20.497V20.1169Z" fill="#307060"/>
<path d="M9.47366 10.3509L9.61986 10.4386L10.3509 11.1696L9.97074 11.5497L9.73682 11.7544L7.19296 14.2982L6.98828 14.5321L5.76021 15.7602L5.55553 15.9941L4.97074 16.5789L4.70758 16.9006L4.5029 17.193L4.23974 17.6608L4.00582 18.2163L3.85963 18.6549L3.74267 19.152L3.68419 19.5614L3.65495 20.0292L3.62571 20.0585H2.39764V19.6491L2.5146 18.8596L2.63156 18.3333L2.86547 17.6316L3.18711 16.959L3.47951 16.5204L3.77191 16.1403L4.0643 15.8187L4.26898 15.5848L5.73097 14.1228L5.93565 13.8889L9.47366 10.3509Z" fill="#307060"/>
<path d="M36.3743 20.1169H37.5731L37.6024 20.1461V20.497L37.4854 21.2865L37.3392 21.9005L37.1345 22.4853L36.8421 23.0994L36.4912 23.6257L36.1988 24.0058L35.8772 24.3567L35 25.2339L34.7953 25.4678L31.1404 29.1227L31.1111 29.1812H31.0527L30.9942 29.2982L30.6725 29.6198L30.5263 29.7368L30.4094 29.6783L29.9708 29.2689L29.8246 29.1227V29.0643L29.7076 29.0058V28.8888L33.4503 25.1461L33.655 24.9122L34.6491 23.9181L34.8538 23.6842L35.1462 23.3918L35.4679 22.9532L35.7603 22.4561L35.9649 21.9882L36.1696 21.3742L36.3158 20.6432L36.345 20.1461L36.3743 20.1169Z" fill="#307060"/>
<path d="M16.0526 34.7369L16.1988 34.7661L16.5205 35.117L17.0175 35.4971L17.5438 35.8187L18.0117 36.0527L18.421 36.1989L19.0351 36.3451L19.6491 36.4328H20.3216L21.1111 36.3158L21.7836 36.1404L22.2514 35.9357L22.7778 35.6433L23.2748 35.2924L23.6257 34.9708L23.8304 34.7369L23.9766 34.7661L24.7368 35.5263L24.6491 35.6725L24.0643 36.1989L23.655 36.5205L23.0409 36.9299L22.3392 37.2807L21.6374 37.5147L20.9064 37.6609L20.4093 37.7193H19.5614L18.8889 37.6316L18.1579 37.4562L17.6023 37.2515L17.0468 36.9883L16.5789 36.6959L16.2573 36.462L15.8479 36.1111L15.5555 35.848L15.2631 35.5556V35.4971L15.4971 35.2924L16.0526 34.7369Z" fill="#307060"/>
<path d="M28.8304 11.959L28.9474 11.9883L33.1579 16.1988L33.3626 16.4327L33.5672 16.6374L33.7719 16.8713L34.0351 17.1637L34.4444 17.7193L34.7076 18.1871L34.883 18.6257L35 19.1228L35.0877 19.7953V20.0584H33.9181L33.8596 19.883L33.7427 19.1813L33.538 18.5672L33.3626 18.2456L33.1287 17.9239L32.8655 17.6608V17.6023L32.7485 17.5438V17.4853L32.6316 17.4269L31.345 16.1403V16.0818L31.2281 16.0234L31.0234 15.7894L29.5906 14.3567V14.2982H29.5322L29.3275 14.0643L28.421 13.1579L28.1871 12.9532L28.0702 12.8362L28.1287 12.7193L28.4795 12.3391L28.7427 12.076L28.8304 11.959Z" fill="#307060"/>
<path d="M19.4445 2.39764H20.4094L21.1404 2.48536L21.7544 2.63156L22.2807 2.80699L23.0117 3.15787L23.4211 3.42103L23.8597 3.74267L24.0936 3.91811V3.97658L24.2105 4.03506L24.7076 4.5029V4.6491L24.386 4.91226L23.9474 5.38009L23.8304 5.35085L23.3626 4.88302L22.807 4.5029L22.31 4.2105L21.7836 3.97658L21.2573 3.83039L20.6433 3.71343L20.3509 3.68419H19.5907L18.8304 3.80115L18.2749 3.94735L17.924 4.09354L17.31 4.41518L16.8714 4.70758L16.579 4.9415L16.3743 5.11694L16.1696 5.35085H16.0526L15.8187 5.14618L15.6725 4.97074L15.5556 4.88302V4.82454L15.4386 4.76606L15.2924 4.61986L15.3217 4.5029L15.7603 4.0643L16.0819 3.80115L16.462 3.50875L17.0176 3.15787L17.4562 2.92395L18.041 2.69004L18.6842 2.5146L19.4445 2.39764Z" fill="#307060"/>
<path d="M11.0526 11.9883L11.1988 12.0175L11.9006 12.7193L11.9298 12.8363L11.7252 13.0409L11.579 13.1579L11.3743 13.3918L11.2281 13.5088L11.0234 13.7427L7.01756 17.7485L6.69592 18.1579L6.49124 18.5088L6.3158 18.9766L6.19884 19.4444L6.11112 20.0585H4.91229L4.94153 19.5614L5.05849 18.8596L5.23393 18.3333L5.52633 17.7778L5.93568 17.2222L6.22808 16.9006L6.43276 16.6667L6.84212 16.2281L7.28071 15.7895L7.48539 15.5556L8.24563 14.7953L8.47954 14.5906L10.9942 12.076L11.0526 11.9883Z" fill="#307060"/>
<path d="M4.91229 20.1169H6.11112L6.25732 20.9064L6.40352 21.3742L6.63744 21.842L6.87136 22.1637L7.13452 22.4561L9.4737 24.7953L9.67837 25.0292L11.9298 27.2806L11.9006 27.3976L11.5497 27.7192L11.4035 27.8947L11.2573 28.0116L11.1696 28.1286L11.0526 28.0994L7.80703 24.8537L7.60235 24.6783L7.39767 24.4444L6.6082 23.6549L6.40352 23.421L6.08188 23.0701L5.70177 22.573L5.43861 22.1637L5.17545 21.6081L5.05849 21.228L4.94153 20.5847L4.91229 20.1169Z" fill="#307060"/>
<path d="M33.8889 20.1169H35.0877L35.0585 20.614L34.9415 21.2572L34.7661 21.7836L34.5029 22.2806L34.152 22.7777L33.8012 23.1871L33.5088 23.5087L33.3041 23.7426L29.0058 28.0409L28.9474 28.1286L28.8012 28.0994L28.421 27.7192L28.2164 27.4853L28.1871 27.3976L28.0702 27.3391L28.1287 27.2222L28.421 26.9298L28.655 26.7251L29.2982 26.0818L29.5029 25.8479L31.0234 24.3274L31.2281 24.0935L33.1287 22.1929L33.4503 21.7251L33.655 21.2572L33.7719 20.8187L33.8304 20.497L33.8596 20.1754L33.8889 20.1169Z" fill="#307060"/>
<path d="M12.807 13.6842L12.9532 13.7134L13.3334 14.0643L13.6258 14.3567L13.8889 14.6783L14.0936 14.9122L14.4737 15.4386L14.7953 15.9649L15.0293 16.4327L15.2339 16.9005L15.4971 17.69L15.6433 18.2748L15.7603 19.0058L15.8187 19.7076V20.0292L15.7895 20.0584H14.5322L14.503 19.9707L14.4152 18.9473L14.2983 18.2456L14.1228 17.6608L13.8889 17.076L13.5088 16.2865L13.2164 15.8187L12.8655 15.3508L12.4562 14.9122L12.3977 14.7953L12.2807 14.7368L12.2515 14.6491L12.1345 14.5906L12.0761 14.5321L12.1053 14.4152L12.193 14.3859L12.2515 14.269L12.7778 13.7427L12.807 13.6842Z" fill="#307060"/>
<path d="M26.9298 13.655L27.0468 13.7135L27.7778 14.4445L27.7485 14.5615L27.5146 14.7661L27.3099 14.9708L27.1053 15.2047L26.7251 15.7018L26.3743 16.2574L26.1403 16.7252L25.9064 17.2223L25.6433 17.924L25.4971 18.5088L25.4094 19.2983L25.3509 20.0293L25.2924 20.0585H24.0351L24.0643 19.3275L24.1813 18.4796L24.3567 17.7193L24.6199 16.9299L24.9415 16.2281L25.2047 15.731L25.4971 15.2924L25.8479 14.8246L26.1988 14.4153L26.6082 13.9767L26.8713 13.7427L26.9298 13.655Z" fill="#307060"/>
<path d="M14.5322 20.1169H15.7895L15.8187 20.1461V20.4678L15.7018 21.4912L15.5263 22.3099L15.2047 23.2748L14.7953 24.1227L14.5322 24.5613L14.1228 25.1461L13.8012 25.5263L13.538 25.8187L13.3334 26.0526H13.2749V26.1111L13.041 26.3157L12.8948 26.4327L12.7778 26.3742L12.0761 25.6725L12.1053 25.5555L12.7193 24.9415L13.041 24.5321L13.3334 24.0935L13.6842 23.4795L13.9474 22.8947L14.2106 22.1929L14.3568 21.6081L14.4445 20.9356L14.503 20.1461L14.5322 20.1169Z" fill="#307060"/>
<path d="M24.2105 20.1169H25.4678L25.497 20.1461L25.614 21.345L25.731 21.959L25.9649 22.6608L26.345 23.5087L26.6959 24.1227L27.0175 24.5906L27.2807 24.9122L27.69 25.3508L27.8947 25.5555L27.8655 25.7017L27.2222 26.345L27.1637 26.4327L27.0468 26.4034L26.7836 26.1403L26.5789 25.9649L26.3742 25.7309L26.1111 25.4385L25.8187 25.0584L25.3508 24.3567L25 23.7134L24.7076 23.0116L24.4737 22.2806L24.3275 21.6374L24.2105 20.7894L24.1813 20.1461L24.2105 20.1169Z" fill="#307060"/>
<path d="M17.6608 33.1286H17.807L18.0409 33.3333L18.3626 33.5379L18.8596 33.7719L19.3567 33.9181L19.5321 33.9473H20.4093L20.731 33.8888L21.2281 33.7426L21.6959 33.5087L22.0175 33.304L22.193 33.1286H22.3392L22.807 33.5672L23.0994 33.8596L23.0702 33.9765L22.6316 34.3274L22.1637 34.6198L21.6082 34.883L20.9649 35.0876L20.4386 35.1754L20.1754 35.2046H19.883L19.3275 35.1461L18.7134 34.9999L18.0994 34.766L17.5731 34.4736L17.1052 34.1227L16.8713 33.9181L17.6608 33.1286Z" fill="#307060"/>
<path d="M19.7953 4.91224H20.1462L20.6433 4.97072L21.1111 5.05843L21.7252 5.26311L22.2807 5.55551L22.7193 5.84791L23.0702 6.14031V6.2865L22.7193 6.60814L22.3977 6.92978L22.31 6.98826L22.1638 6.95902L21.9006 6.7251L21.4912 6.49118L21.0526 6.31574L20.614 6.19879L20.2047 6.14031H19.7661L19.2105 6.22802L18.6842 6.40346L18.2164 6.63738L17.9532 6.84206L17.7778 6.98826L17.6608 6.95902L17.31 6.60814L17.193 6.52042V6.46194L17.076 6.40346L16.9006 6.22802L16.9591 6.11107L17.4562 5.73095L17.8947 5.46779L18.3041 5.26311L19.0059 5.02919L19.4737 4.94148L19.7953 4.91224Z" fill="#307060"/>
<path d="M11.1988 15.2924L11.3158 15.3216L11.5497 15.5263L11.8129 15.8187L12.1637 16.228L12.5439 16.7836L12.807 17.2514L13.0702 17.8362L13.2456 18.421L13.3626 19.0058L13.4211 19.4736V20.0292L13.3918 20.0584H12.193L12.0468 19.0058L11.9298 18.5087L11.7544 17.9824L11.4035 17.3099L11.1111 16.8713L10.8772 16.5789L10.5263 16.228L10.4386 16.1695L10.4678 16.0233L11.1988 15.2924Z" fill="#307060"/>
<path d="M28.7135 15.2632L28.8304 15.2924L29.0351 15.5264L29.5614 16.0527L29.5322 16.1696L29.2105 16.462L28.8889 16.8714L28.538 17.4269L28.3041 17.8655L28.0994 18.3919L27.9825 18.8597L27.8655 19.6784L27.8363 20.0293L27.807 20.0585H26.579V19.5322L26.6667 18.8305L26.8421 18.1287L27.076 17.5147L27.3977 16.9006L27.7485 16.3743L28.1287 15.9065L28.4503 15.5556L28.655 15.3509L28.7135 15.2632Z" fill="#307060"/>
<path d="M12.193 20.1169H13.4211V20.6432L13.3041 21.4327L13.1287 22.076L12.924 22.6023L12.6023 23.2163L12.3684 23.5672L12.1345 23.8888L11.8129 24.2689L11.5497 24.5613L11.4035 24.7368H11.345V24.7953L11.2281 24.8245L10.9942 24.6198L10.4971 24.1227L10.4386 24.035L10.4678 23.9181L10.7602 23.6549L10.9942 23.3918L11.2866 22.9824L11.6959 22.2514L11.9298 21.6374L12.076 20.9649L12.1345 20.5263L12.1637 20.1461L12.193 20.1169Z" fill="#307060"/>
<path d="M26.5789 20.1169H27.807L27.8362 20.1461L27.9532 21.0233L28.0994 21.6958L28.3041 22.2222L28.5672 22.7192L28.8889 23.2163L29.152 23.538L29.4152 23.8303L29.5321 23.9473V24.0935L29.2982 24.2982L28.9181 24.6783L28.8011 24.8245L28.6842 24.7953L28.3041 24.4151V24.3567H28.2456L27.9824 24.035L27.69 23.6549L27.3392 23.0994L27.0175 22.4561L26.7544 21.6666L26.6374 21.0818L26.5497 20.2046L26.5789 20.1169Z" fill="#307060"/>
<path d="M9.59065 16.9005L9.73685 16.9883L10.0585 17.3684L10.2632 17.69L10.5263 18.1871L10.731 18.7719L10.848 19.269L10.9064 19.7076V20.0584H9.76609L9.70761 20L9.59065 19.2105L9.41521 18.7134L9.1813 18.2456L8.94738 17.8947L8.83042 17.7777L8.85966 17.6315L9.59065 16.9005Z" fill="#307060"/>
<path d="M30.3509 16.8714L30.4678 16.9299L30.731 17.2223L31.1988 17.6901L31.1403 17.8071L30.8772 18.1579L30.5555 18.772L30.4093 19.2106L30.3216 20L30.2339 20.0585H29.0935L29.1228 19.5322L29.269 18.8012L29.4444 18.3041L29.6783 17.8363L29.883 17.4854L30.1754 17.1053L30.3509 16.8714Z" fill="#307060"/>
<path d="M9.70758 20.1169H10.9064V20.4093L10.8187 20.9649L10.6725 21.5204L10.4678 22.0175L10.1754 22.5438L9.82454 23.0116L9.67834 23.1871L9.56139 23.1578L9.06431 22.69L8.83039 22.4561L8.80115 22.3391L9.00583 22.1344L9.26899 21.6958L9.47367 21.2572L9.61986 20.7894L9.6491 20.6432L9.67834 20.1461L9.70758 20.1169Z" fill="#307060"/>
<path d="M29.1228 20.1169H30.3216L30.3801 20.7017L30.4971 21.1403L30.6433 21.5204L30.9064 21.9882L31.1696 22.3391L31.1988 22.4268L30.731 22.8654L30.4093 23.2163L30.3216 23.1871L30 22.7777L29.7076 22.3391L29.4152 21.7251L29.269 21.2865L29.152 20.7894L29.0935 20.1461L29.1228 20.1169Z" fill="#307060"/>
</g>
<g id="LOGO BUMI KADAKA 3_layerstyle">
<g id="Layer_x0020_1">
<path id="Vector_2" d="M158.919 24.8005C159.474 26.2674 159.979 27.757 160.611 29.1902C160.86 29.7547 161.394 30.1933 161.79 30.6785H158.072C158.679 29.804 158.427 28.9355 158.133 28.0698C157.674 26.7166 157.196 25.37 156.758 24.01C156.639 23.6396 156.415 23.5079 156.073 23.4392C153.299 22.8805 150.955 23.6937 149.057 25.737C148.379 26.4669 147.825 27.3272 147.299 28.1799C146.771 29.034 146.938 29.7803 147.674 30.4896C147.719 30.5328 147.757 30.5832 147.839 30.6773H144.319C146.187 29.8187 146.672 28.0549 147.251 26.3411C148.853 21.6036 150.456 16.867 152.101 12.1447C152.315 11.5299 152.214 11.1278 151.767 10.7379C151.538 10.539 151.312 10.3376 151.09 10.0143C151.744 10.0143 152.4 9.98992 153.054 10.0212C153.716 10.0529 154.047 10.5241 154.253 11.0837C154.561 11.9212 154.845 12.7683 155.135 13.6128C156.177 16.6537 157.218 19.6954 158.259 22.7369C158.306 22.8727 158.348 23.0103 158.408 23.1948C157.683 22.945 156.998 22.7268 156.332 22.4631C156.207 22.4139 156.129 22.191 156.074 22.0327C154.987 18.8866 153.907 15.7382 152.825 12.5907C152.778 12.4535 152.719 12.3204 152.608 12.0389C150.951 16.9061 149.336 21.6498 147.72 26.3934C147.742 26.4066 147.764 26.4198 147.785 26.4331C147.943 26.2437 148.099 26.0514 148.261 25.8647C151.063 22.6321 154.547 21.8873 158.424 23.8349C159.672 24.4614 160.782 25.3735 161.921 26.2019C163.206 27.1367 164.37 28.2658 165.732 29.0624C169.667 31.3652 174.226 29.6344 175.684 25.3057C176.849 21.8462 176.829 18.3564 175.374 14.9726C174.255 12.3712 172.249 10.8661 169.376 10.6774C168.328 10.6087 167.273 10.6664 166.172 10.6664V28.8222C165.464 28.3088 164.859 27.891 164.285 27.4323C164.186 27.3534 164.205 27.1012 164.205 26.929C164.201 22.311 164.203 17.6931 164.2 13.0751C164.2 12.7016 164.203 12.325 164.159 11.955C164.08 11.2796 163.806 10.6854 163.252 10.1869C163.377 10.1564 163.435 10.1293 163.493 10.1304C165.945 10.1737 168.414 10.0529 170.844 10.3045C174.389 10.6715 176.981 12.7821 178.024 16.3408C178.801 18.9897 178.851 21.6557 178.042 24.3155C176.323 29.9661 169.758 32.3859 164.796 29.1296C163.35 28.1805 162.076 26.9708 160.713 25.8939C160.181 25.4737 159.62 25.0901 159.073 24.6896C159.021 24.7266 158.97 24.7636 158.919 24.8005Z" fill="#F1AE91"/>
<path id="Vector_3" d="M100.402 30.7405C97.7649 24.8775 95.1909 19.154 92.6168 13.4305C92.5874 13.4368 92.5578 13.4431 92.5284 13.4494C92.5221 13.5691 92.5103 13.6888 92.5103 13.8085C92.5095 18.4256 92.512 23.043 92.5076 27.6603C92.507 28.4057 92.6114 29.1192 93.0279 29.7556C93.2679 30.1223 93.5222 30.4796 93.6537 30.6716H90.524C90.4998 30.6405 90.4757 30.6094 90.4513 30.5783C90.5103 30.5556 90.575 30.5418 90.6275 30.5089C91.5821 29.9125 92.0064 29.0218 92.0079 27.9249C92.0146 22.7385 92.0215 17.5521 91.9923 12.3659C91.9898 11.9405 91.7267 11.5126 91.5656 11.093C91.4397 10.7649 91.2841 10.4482 91.114 10.0637C91.7515 10.0637 92.3176 10.0406 92.8793 10.0808C93.0138 10.0904 93.1837 10.288 93.2522 10.4381C94.1954 12.5064 95.1247 14.5809 96.0557 16.6547C97.6455 20.1948 99.234 23.7357 100.825 27.2752C100.876 27.3884 100.952 27.4904 101.051 27.6563C101.643 26.1065 102.211 24.6217 102.777 23.1364C104.379 18.9346 105.985 14.7342 107.575 10.5278C107.712 10.1666 107.886 10.035 108.278 10.0534C109.056 10.0898 109.836 10.0642 110.735 10.0642C109.639 11.0246 109.721 12.2437 109.72 13.4368C109.717 18.2005 109.718 22.964 109.721 27.7277C109.721 28.0846 109.749 28.4421 109.771 28.7988C109.815 29.5221 110.117 30.1309 110.692 30.6822H106.76C107.783 29.8224 107.768 28.7278 107.768 27.6343C107.766 22.5294 107.767 17.4242 107.767 12.3191C107.767 12.1473 107.767 11.9754 107.767 11.8036C107.724 11.7946 107.682 11.7854 107.639 11.7763C105.243 18.0531 102.848 24.3301 100.402 30.7405Z" fill="#F1AE91"/>
<path id="Vector_4" d="M57.9117 30.2139C59.3943 30.2187 60.8388 30.2712 62.2567 29.9629C65.1596 29.3316 67.3142 27.017 67.6012 24.1105C67.8586 21.5062 66.5171 18.7721 63.6814 17.4627C62.6968 17.008 61.6592 16.7753 60.582 16.6871C60.4554 16.6768 60.338 16.551 60.2164 16.4788C60.3392 16.4261 60.4583 16.344 60.5862 16.3261C60.9391 16.2766 61.2992 16.2741 61.6505 16.2167C62.7621 16.0355 63.804 15.6958 64.5379 14.7664C65.3345 13.7575 65.2058 12.5579 64.215 11.7428C63.5594 11.2036 62.7939 10.8666 61.9584 10.7847C60.7968 10.6709 59.6266 10.6512 58.4621 10.5663C58.0041 10.5329 57.9014 10.7091 57.9025 11.1456C57.9161 17.3219 57.9117 23.4981 57.9117 29.674V30.2139ZM55 30.6486C55.8392 29.9239 55.9671 29.0095 55.9661 28.0404C55.961 22.954 55.961 17.8675 55.9658 12.7809C55.9669 11.8278 55.8401 10.9291 55.0468 10.2243C55.131 10.1829 55.182 10.1354 55.2324 10.1362C57.715 10.1787 60.2002 10.172 62.679 10.2955C63.8086 10.3517 64.9127 10.7072 65.8883 11.3424C67.3644 12.303 67.4809 13.84 66.1578 14.9982C65.3287 15.7242 64.3262 16.0891 63.2694 16.3263C63.0672 16.3717 62.8623 16.4051 62.6185 16.4517C63.4078 16.7133 64.1773 16.9119 64.9012 17.219C67.172 18.1819 68.8921 19.6994 69.5899 22.1588C70.2891 24.6226 69.3094 27.1333 67.0697 28.7113C65.3759 29.9048 63.4654 30.5246 61.4265 30.634C59.3692 30.7445 57.3028 30.6905 55.2404 30.7069C55.195 30.7071 55.1495 30.6857 55 30.6486Z" fill="#F1AE91"/>
<path id="Vector_5" d="M201.841 30.6838H197.9C198.961 29.7593 198.896 28.5752 198.896 27.4107C198.897 22.6312 198.897 17.852 198.895 13.0728C198.894 12.732 198.868 12.3914 198.85 12.0508C198.81 11.3045 198.548 10.6593 197.905 10.1081H201.802C200.778 11.0136 200.839 12.2085 200.84 13.3932C200.845 16.7582 200.842 20.1233 200.842 23.4883C200.842 23.666 200.842 23.8436 200.842 24.0213C200.892 24.0624 200.942 24.1038 200.992 24.1451C201.032 24.0459 201.054 23.9346 201.113 23.8489C203.635 20.201 206.162 16.5562 208.683 12.9075C208.876 12.628 209.062 12.3353 209.195 12.0246C209.473 11.3772 209.639 10.7189 208.988 10.0901H212.735C211.094 10.7104 209.96 11.7768 209.043 13.099C208.589 13.7531 208.138 14.409 207.685 15.0635C206.659 16.5462 205.632 18.0284 204.605 19.5106C204.486 19.6821 204.357 19.8142 204.539 20.0595C206.66 22.9153 208.737 25.8055 210.9 28.6292C211.508 29.4231 212.36 30.0297 213.051 30.6752H208.97C209.219 29.7135 208.669 29.004 208.161 28.301C206.581 26.1156 204.979 23.9457 203.384 21.7708C203.339 21.7094 203.28 21.659 203.188 21.5627C202.409 22.6854 201.648 23.7727 200.903 24.8708C200.831 24.9775 200.845 25.1527 200.845 25.296C200.839 26.0927 200.847 26.8891 200.841 27.6858C200.833 28.768 200.865 29.8359 201.841 30.6838Z" fill="#F1AE91"/>
<path id="Vector_6" d="M128 30.5782C128.897 29.8414 129.012 28.919 129.012 27.952C129.01 22.8301 129.01 17.7082 129.011 12.5865C129.012 11.6336 128.888 10.7292 128.023 10.0111H131.921C130.87 10.9466 130.968 12.1825 130.969 13.3938C130.97 16.727 130.969 20.0603 130.969 23.3935V24.0343C131.119 23.867 131.207 23.7874 131.273 23.6925C133.781 20.0731 136.289 16.4536 138.791 12.83C138.993 12.5374 139.18 12.2279 139.327 11.9047C139.617 11.2695 139.716 10.6297 139.151 10H142.885C140.362 10.875 139.207 12.9581 137.879 14.8668C136.82 16.387 135.765 17.9091 134.727 19.4434C134.639 19.5736 134.617 19.8623 134.701 19.9776C136.749 22.7877 138.813 25.5862 140.88 28.3818C141.535 29.2669 142.347 29.9819 143.444 30.5729H139.067C139.312 29.926 139.071 29.3669 138.723 28.8749C137.486 27.1237 136.219 25.3931 134.961 23.6568C134.437 22.9342 133.905 22.2176 133.335 21.4403C132.881 22.0912 132.501 22.7373 132.022 23.2994C131.19 24.2771 130.782 25.3502 130.96 26.6431C131.019 27.0739 130.967 27.5197 130.97 27.9588C130.977 29.1838 131.116 29.5836 131.894 30.5782H128Z" fill="#F1AE91"/>
<path id="Vector_7" d="M182.305 24.9312C182.933 24.6106 183.501 24.2543 184.117 24.0244C184.735 23.7934 185.403 23.697 186.045 23.5255C186.842 23.3127 187.662 23.1513 188.424 22.8453C189.558 22.3895 189.94 21.3953 189.545 20.2469C188.89 18.3437 188.245 16.4371 187.591 14.5339C187.319 13.7415 187.033 12.9539 186.753 12.1639C186.717 12.166 186.681 12.1681 186.646 12.1702C185.198 16.426 183.751 20.682 182.305 24.9312ZM190.101 21.944C189.576 23.0406 188.607 23.4127 187.587 23.6855C186.491 23.9786 185.368 24.1789 184.288 24.5195C182.179 25.1849 181.298 27.1259 181.098 28.9567C181.026 29.6076 181.267 30.0263 181.917 30.6617H178.344C178.618 30.5053 178.838 30.3973 179.039 30.2615C179.953 29.6435 180.512 28.7595 180.86 27.7378C182.661 22.4518 184.447 17.1611 186.26 11.8794C186.386 11.5101 186.315 11.2757 186.1 11.0025C185.836 10.6683 185.603 10.3105 185.459 10.1087C185.949 10.1087 186.746 10.0394 187.519 10.1454C187.797 10.1834 188.122 10.6027 188.244 10.9184C188.765 12.2647 189.223 13.6354 189.694 15.0009C191.239 19.4819 192.775 23.9658 194.324 28.4454C194.633 29.3393 195.17 30.0807 196.064 30.6783H192.142C192.796 29.7941 192.504 28.921 192.214 28.059C191.572 26.1514 190.914 24.2491 190.261 22.345C190.22 22.2257 190.168 22.1104 190.101 21.944Z" fill="#F1AE91"/>
<path id="Vector_8" d="M218.211 24.9534C219.509 23.9211 221.066 23.7189 222.584 23.3926C223.152 23.2704 223.722 23.1136 224.257 22.8895C225.461 22.3856 225.859 21.4829 225.445 20.2459C224.797 18.3056 224.129 16.3717 223.466 14.4366C223.206 13.6779 222.936 12.9227 222.671 12.1661C222.634 12.1678 222.597 12.1694 222.56 12.1711C221.11 16.4319 219.661 20.6925 218.211 24.9534ZM217.908 30.6815H214.227C214.524 30.5108 214.742 30.4033 214.941 30.2687C215.75 29.7231 216.322 28.9756 216.639 28.0658C217.711 24.9847 218.756 21.894 219.81 18.8063C220.586 16.5327 221.347 14.2536 222.145 11.9878C222.302 11.5422 222.255 11.213 221.922 10.9048C221.641 10.6435 221.36 10.3824 220.955 10.0067C221.713 10.0067 222.353 9.98882 222.992 10.0115C223.647 10.0351 224.022 10.4527 224.227 11.0272C224.712 12.3878 225.182 13.7535 225.65 15.12C227.145 19.4808 228.63 23.8453 230.134 28.2029C230.467 29.1676 230.97 30.0346 232 30.6716H228.072C228.702 29.7675 228.403 28.8761 228.098 27.9818C227.464 26.1227 226.835 24.2619 226.203 22.4024C226.162 22.2825 226.106 22.1676 226.028 21.9814C225.205 23.4147 223.777 23.6024 222.416 23.947C221.445 24.1926 220.44 24.4018 219.545 24.8268C217.829 25.6411 217.226 27.241 217.014 29.0031C216.935 29.6618 217.269 30.2181 217.908 30.6815Z" fill="#F1AE91"/>
<path id="Vector_9" d="M76.12 10.0875C75.2513 10.8111 75.1076 11.7121 75.1045 12.6358C75.0904 16.7969 75.0717 20.9581 75.1101 25.1188C75.1306 27.3338 76.0893 29.042 78.1731 29.9673C81.0164 31.2301 84.9647 29.5051 85.9298 26.5838C86.0895 26.1002 86.1538 25.5643 86.1561 25.0522C86.174 21.0213 86.1618 16.9902 86.1687 12.9592C86.171 11.7379 85.7072 10.7871 84.5553 10.1087H88.2294C86.9878 10.7498 86.6644 11.8364 86.6643 13.0853C86.6634 16.905 86.6128 20.7257 86.6783 24.5443C86.7411 28.2071 84.2821 30.2613 81.2838 30.7382C79.221 31.0663 77.2632 30.7554 75.5182 29.5447C74.0672 28.5378 73.2321 27.1295 73.2 25.3592C73.1446 22.3207 73.1732 19.2806 73.1674 16.2412C73.1654 15.1196 73.1721 13.9981 73.1648 12.8766C73.158 11.858 73.0793 10.859 72.1468 10.0875H76.12Z" fill="#F1AE91"/>
<path id="Vector_10" d="M113.704 30.6634C114.553 29.9615 114.703 29.0825 114.704 28.172C114.714 22.9854 114.715 17.7986 114.704 12.6121C114.702 11.6869 114.562 10.788 113.684 10.1007H117.615C116.582 11.0265 116.645 12.2427 116.645 13.4398C116.643 18.2524 116.641 23.0652 116.647 27.8781C116.649 28.8818 116.725 29.8728 117.635 30.6634H113.704Z" fill="#F1AE91"/>
</g>
</g>
</g>
</svg>
